<svg xmlns="http://www.w3.org/2000/svg" width="1024" height="1024" viewBox="0 0 1024 1024" role="img" aria-labelledby="title"><title id="title">Focalet focus app icon</title><rect x="0" y="0" width="1024" height="1024" rx="240.64" fill="#387DA8"/><svg x="81.92" y="81.92" width="860.16" height="860.16" viewBox="0 0 128 128" color="#FFFFFF" fill="currentColor"><g transform="rotate(-12 64 64)"><path fill="currentColor" fill-rule="evenodd" d="M47 14H81C101 14 114 27 114 47V81C114 101 101 114 81 114H47C27 114 14 101 14 81V47C14 27 27 14 47 14ZM42 42C55 55 73 55 86 42C73 55 73 73 86 86C73 73 55 73 42 86C55 73 55 55 42 42Z"/></g></svg></svg>
